name rise49.8558peak67.6521fall70.3087.mot
datacolumns 19
datarows 26
range 20.41159200000000 20.45326000000000
endheader
time	ground_force1_vx	ground_force1_vy	ground_force1_vz	ground_force1_px	ground_force1_py	ground_force1_pz	ground_force2_vx	ground_force2_vy	ground_force2_vz	ground_force2_px	ground_force2_py	ground_force2_pz	ground_torque1_x	ground_torque1_y	ground_torque1_z	ground_torque2_x	ground_torque2_y	ground_torque2_z	
20.41159200000000	-49.89192900000000	809.88266199999998	66.60224900000000	0.15112500000000	0.00000000000000	0.14136100000000	-9.05829700000000	40.70457800000000	9.70152900000000	0.38060400000000	0.00000000000000	-0.05840300000000	0.00000000000000	31.86738000000000	0.00000000000000	0.00000000000000	6.96453700000000	0.00000000000000	
20.41325400000000	-49.84455500000000	807.20045600000003	66.44583200000000	0.15059900000000	0.00000000000000	0.14136400000000	-10.00289600000000	47.31173400000000	10.86298400000000	0.38425900000000	0.00000000000000	-0.05921300000000	0.00000000000000	31.70378900000000	0.00000000000000	0.00000000000000	7.84981300000000	0.00000000000000	
20.41492600000000	-49.79654400000000	804.38390300000003	66.26269300000000	0.15009100000000	0.00000000000000	0.14136400000000	-10.79646200000000	53.90167800000000	11.90394100000000	0.38780500000000	0.00000000000000	-0.05995300000000	0.00000000000000	31.53564700000000	0.00000000000000	0.00000000000000	8.66033100000000	0.00000000000000	
20.41659100000000	-49.74876300000000	801.43469800000003	66.05266399999999	0.14960200000000	0.00000000000000	0.14135900000000	-11.41524300000000	60.38297700000000	12.79960400000000	0.39124000000000	0.00000000000000	-0.06063200000000	0.00000000000000	31.36324300000000	0.00000000000000	0.00000000000000	9.37712900000000	0.00000000000000	
20.41825300000000	-49.70208300000000	798.35464800000000	65.81562599999999	0.14913100000000	0.00000000000000	0.14134900000000	-11.84504800000000	66.68966500000001	13.53426500000000	0.39456600000000	0.00000000000000	-0.06125800000000	0.00000000000000	31.18686700000000	0.00000000000000	0.00000000000000	9.98747000000000	0.00000000000000	
20.41992400000000	-49.65738500000000	795.14566500000001	65.55150999999999	0.14868000000000	0.00000000000000	0.14133500000000	-12.08114300000000	72.78293300000000	14.10132500000000	0.39778400000000	0.00000000000000	-0.06184000000000	0.00000000000000	31.00681300000000	0.00000000000000	0.00000000000000	10.48501700000000	0.00000000000000	
20.42159200000000	-49.61554500000000	791.80975300000000	65.26029200000001	0.14824700000000	0.00000000000000	0.14131600000000	-12.12738400000000	78.65029400000000	14.50257000000000	0.40089300000000	0.00000000000000	-0.06238200000000	0.00000000000000	30.82337400000000	0.00000000000000	0.00000000000000	10.86946300000000	0.00000000000000	
20.42325800000000	-49.57743900000000	788.34899199999995	64.94199900000000	0.14783200000000	0.00000000000000	0.14129300000000	-11.99479300000000	84.30271999999999	14.74688200000000	0.40389500000000	0.00000000000000	-0.06289100000000	0.00000000000000	30.63684500000000	0.00000000000000	0.00000000000000	11.14571900000000	0.00000000000000	
20.42492700000000	-49.54393300000000	784.76553000000001	64.59670699999999	0.14743600000000	0.00000000000000	0.14126400000000	-11.69978900000000	89.77034200000000	14.84857500000000	0.40678900000000	0.00000000000000	-0.06337000000000	0.00000000000000	30.44751900000000	0.00000000000000	0.00000000000000	11.32281200000000	0.00000000000000	
20.42658700000000	-49.51588300000000	781.06156999999996	64.22453600000000	0.14705800000000	0.00000000000000	0.14123100000000	-11.26228300000000	95.09730200000000	14.82558500000000	0.40957700000000	0.00000000000000	-0.06382200000000	0.00000000000000	30.25568600000000	0.00000000000000	0.00000000000000	11.41261600000000	0.00000000000000	
20.42825100000000	-49.49412600000000	777.23935400000005	63.82565600000000	0.14669700000000	0.00000000000000	0.14119200000000	-10.70380600000000	100.33635000000000	14.69766100000000	0.41226000000000	0.00000000000000	-0.06425200000000	0.00000000000000	30.06163500000000	0.00000000000000	0.00000000000000	11.42858000000000	0.00000000000000	
20.42992600000000	-49.47948100000000	773.30115300000000	63.40028400000000	0.14635300000000	0.00000000000000	0.14114800000000	-10.04583800000000	105.54365600000000	14.48472500000000	0.41483700000000	0.00000000000000	-0.06466200000000	0.00000000000000	29.86564900000000	0.00000000000000	0.00000000000000	11.38451800000000	0.00000000000000	
20.43158600000000	-49.47273900000000	769.24925699999994	62.94868000000000	0.14602500000000	0.00000000000000	0.14109900000000	-9.30840800000000	110.77421600000000	14.20549100000000	0.41731200000000	0.00000000000000	-0.06505400000000	0.00000000000000	29.66800400000000	0.00000000000000	0.00000000000000	11.29358900000000	0.00000000000000	
20.43325300000000	-49.47466300000000	765.08595700000001	62.47115200000000	0.14571400000000	0.00000000000000	0.14104500000000	-8.50905500000000	116.07811599999999	13.87641200000000	0.41968300000000	0.00000000000000	-0.06543000000000	0.00000000000000	29.46897300000000	0.00000000000000	0.00000000000000	11.16748000000000	0.00000000000000	
20.43492600000000	-49.48598100000000	760.81353899999999	61.96804800000000	0.14541700000000	0.00000000000000	0.14098500000000	-7.66215200000000	121.49777899999999	13.51097500000000	0.42195400000000	0.00000000000000	-0.06579300000000	0.00000000000000	29.26881800000000	0.00000000000000	0.00000000000000	11.01585200000000	0.00000000000000	
20.43658500000000	-49.50738200000000	756.43427099999997	61.43976100000000	0.14513500000000	0.00000000000000	0.14092000000000	-6.77857900000000	127.06625000000000	13.11934700000000	0.42412400000000	0.00000000000000	-0.06614200000000	0.00000000000000	29.06779600000000	0.00000000000000	0.00000000000000	10.84602700000000	0.00000000000000	
20.43825800000000	-49.53951100000000	751.95038899999997	60.88672300000000	0.14486700000000	0.00000000000000	0.14085000000000	-5.86572300000000	132.80644100000001	12.70831800000000	0.42619500000000	0.00000000000000	-0.06648100000000	0.00000000000000	28.86615200000000	0.00000000000000	0.00000000000000	10.66290400000000	0.00000000000000	
20.43992100000000	-49.58296600000000	747.36409100000003	60.30940800000000	0.14461100000000	0.00000000000000	0.14077400000000	-4.92772600000000	138.73123799999999	12.28151300000000	0.42817000000000	0.00000000000000	-0.06681000000000	0.00000000000000	28.66412200000000	0.00000000000000	0.00000000000000	10.46907700000000	0.00000000000000	
20.44158900000000	-49.63829100000000	742.67752599999994	59.70832300000000	0.14436700000000	0.00000000000000	0.14069300000000	-3.96593100000000	144.84429000000000	11.83979100000000	0.43004800000000	0.00000000000000	-0.06712900000000	0.00000000000000	28.46193000000000	0.00000000000000	0.00000000000000	10.26510100000000	0.00000000000000	
20.44325300000000	-49.70597700000000	737.89278300000001	59.08401500000000	0.14413300000000	0.00000000000000	0.14060600000000	-2.97945200000000	151.14130399999999	11.38177700000000	0.43183300000000	0.00000000000000	-0.06744000000000	0.00000000000000	28.25979100000000	0.00000000000000	0.00000000000000	10.04986200000000	0.00000000000000	
20.44491900000000	-49.78644900000000	733.01188400000001	58.43706400000000	0.14391000000000	0.00000000000000	0.14051400000000	-1.96580300000000	157.61164700000000	10.90445900000000	0.43352400000000	0.00000000000000	-0.06774400000000	0.00000000000000	28.05790200000000	0.00000000000000	0.00000000000000	9.82101100000000	0.00000000000000	
20.44659000000000	-49.88007300000000	728.03677500000003	57.76808100000000	0.14369500000000	0.00000000000000	0.14041700000000	-0.92152700000000	164.24009100000001	10.40379600000000	0.43512500000000	0.00000000000000	-0.06804100000000	0.00000000000000	27.85645200000000	0.00000000000000	0.00000000000000	9.57540400000000	0.00000000000000	
20.44826000000000	-49.98714200000000	722.96932300000003	57.07771000000000	0.14348800000000	0.00000000000000	0.14031400000000	0.15722500000000	171.00853499999999	9.87528400000000	0.43663700000000	0.00000000000000	-0.06833200000000	0.00000000000000	27.65561300000000	0.00000000000000	0.00000000000000	9.30953100000000	0.00000000000000	
20.44992300000000	-50.10787900000000	717.81130199999996	56.36662100000000	0.14328800000000	0.00000000000000	0.14020600000000	1.27418300000000	177.89758000000000	9.31445700000000	0.43806100000000	0.00000000000000	-0.06861700000000	0.00000000000000	27.45554100000000	0.00000000000000	0.00000000000000	9.01988700000000	0.00000000000000	
20.45161100000000	-50.24243100000000	712.56439399999999	55.63551100000000	0.14309400000000	0.00000000000000	0.14009300000000	2.43256500000000	184.88788400000001	8.71728400000000	0.43939900000000	0.00000000000000	-0.06889700000000	0.00000000000000	27.25638000000000	0.00000000000000	0.00000000000000	8.70328700000000	0.00000000000000	
20.45326000000000	-50.39086800000000	707.23018200000001	54.88510300000000	0.14290400000000	0.00000000000000	0.13997400000000	3.63478500000000	191.96122199999999	8.08047300000000	0.44065300000000	0.00000000000000	-0.06917100000000	0.00000000000000	27.05825500000000	0.00000000000000	0.00000000000000	8.35708600000000	0.00000000000000	
